<?xml version="1.0" encoding="utf-8"?>
<!-- Generator: Adobe Illustrator 19.1.0, SVG Export Plug-In . SVG Version: 6.00 Build 0)  -->
<svg version="1.1" id="Capa_1" xmlns:sketch="http://www.bohemiancoding.com/sketch/ns"
	 xmlns="http://www.w3.org/2000/svg" xmlns:xlink="http://www.w3.org/1999/xlink" x="0px" y="0px" viewBox="-315 271.3 210 54"
	 style="enable-background:new -315 271.3 210 54;" xml:space="preserve">
<style type="text/css">
	.st0{fill:none;}
	.st1{fill:#FFFFFF;}
</style>
<rect x="-315" y="271.3" class="st0" width="210" height="54"/>
<title>Artboard</title>
<desc>Created with Sketch.</desc>
<g id="XMLID_1_">
	<polygon id="XMLID_5_" class="st1" points="-298.2,298.1 -284,306.2 -292.5,283.8 	"/>
	<path id="XMLID_14_" class="st1" d="M-285.1,271.3c-13.8,0-25,11.2-25,25c0,13.8,11.2,25,25,25s25-11.2,25-25
		C-260.1,282.5-271.3,271.3-285.1,271.3z M-280,309.2h-2.9l0,0l0,0v0l-16.1-8.8l-3.4,8.8h-2.8l11.3-28.1h2.9l8.1,20.7v-20.7h2.7
		v25.2l16.4-9.4l1.1,2.6L-280,309.2z"/>
</g>
</svg>
